<?xml version="1.0" encoding="utf-8"?>
<!-- Generator: Adobe Illustrator 21.0.2, SVG Export Plug-In . SVG Version: 6.00 Build 0)  -->
<svg version="1.1" id="Layer_1" xmlns="http://www.w3.org/2000/svg" xmlns:xlink="http://www.w3.org/1999/xlink" x="0px" y="0px"
	 viewBox="0 0 59.3 59.3" enable-background="new 0 0 59.3 59.3" xml:space="preserve">
<g>
	<path fill="#9EC300" d="M0,30.8c15.3-9,30.6,9,46,0c0-6.2,0-12.5,0-18.7c-15.3,9-30.6-9-46,0C0,18.3,0,24.5,0,30.8z"/>
</g>
<g>
	<path fill="#B3DD00" d="M7.4,40.1c15.3-9,30.6,9,46,0c0-6.2,0-12.5,0-18.7c-15.3,9-30.6-9-46,0C7.4,27.6,7.4,33.9,7.4,40.1z"/>
</g>
<g>
	<path fill="#D8F500" d="M13.4,47.3c15.3-9,30.6,9,46,0c0-6.2,0-12.5,0-18.7c-15.3,9-30.6-9-46,0C13.4,34.8,13.4,41,13.4,47.3z"/>
</g>
</svg>
