<?xml version="1.0" standalone="no"?>
<!DOCTYPE svg PUBLIC "-//W3C//DTD SVG 20010904//EN"
 "http://www.w3.org/TR/2001/REC-SVG-20010904/DTD/svg10.dtd">
<svg version="1.0" xmlns="http://www.w3.org/2000/svg"
 width="700.000000pt" height="700.000000pt" viewBox="0 0 700.000000 700.000000"
 preserveAspectRatio="xMidYMid meet">
<metadata>
Created by potrace 1.11, written by Peter Selinger 2001-2013
</metadata>
<g transform="translate(0.000000,700.000000) scale(0.100000,-0.100000)"
fill="#000000" stroke="none">
<path d="M997 5874 c-1 -1 -33 -4 -72 -7 -262 -21 -532 -98 -778 -221 l-142
-71 -3 -1102 c-1 -607 0 -1103 4 -1103 3 0 42 20 87 44 153 82 327 148 514
195 72 18 104 24 203 37 19 3 40 7 47 9 6 2 13 -2 15 -8 2 -7 3 -319 3 -694
-1 -376 0 -683 2 -683 1 0 44 22 95 49 112 59 192 93 318 136 113 39 278 80
287 72 3 -4 5 -254 4 -556 -1 -519 0 -550 17 -544 9 4 49 24 87 44 178 96 449
189 625 215 19 3 46 7 59 9 27 5 82 12 154 20 56 7 337 7 412 0 98 -8 222 -22
270 -31 11 -2 63 -11 115 -20 109 -19 109 -18 175 -34 28 -6 59 -14 71 -16 55
-10 444 -114 559 -149 44 -13 136 -40 205 -60 69 -19 154 -44 190 -55 37 -11
111 -32 165 -46 91 -24 140 -36 188 -49 20 -6 31 -8 122 -30 39 -9 79 -19 90
-21 11 -2 31 -6 45 -9 14 -3 36 -7 50 -10 14 -3 48 -9 75 -15 28 -6 70 -12 94
-15 24 -2 51 -7 60 -9 59 -18 238 -30 436 -30 221 -1 297 6 475 38 183 33 445
127 610 219 l65 36 3 1100 c1 616 -2 1101 -7 1101 -4 0 -39 -17 -77 -38 -81
-44 -208 -100 -314 -137 -78 -27 -258 -75 -282 -75 -12 0 -14 89 -14 555 1
305 -1 555 -3 555 -2 0 -44 -22 -95 -48 -196 -103 -464 -196 -621 -216 -37 -5
-102 -16 -132 -22 l-23 -4 0 695 0 696 -92 -48 c-204 -107 -464 -197 -628
-219 -19 -2 -42 -6 -50 -9 -8 -2 -42 -7 -75 -11 -33 -3 -73 -8 -90 -10 -46 -6
-394 -6 -445 0 -25 3 -67 8 -95 11 -151 17 -235 31 -400 66 -49 11 -99 21
-111 23 -44 9 -386 100 -534 142 -85 25 -184 54 -220 64 -36 10 -121 34 -190
54 -69 20 -141 40 -160 46 -49 14 -308 81 -329 85 -9 1 -34 8 -56 13 -22 6
-53 13 -70 16 -16 2 -55 10 -85 16 -191 39 -410 62 -623 64 -97 2 -178 2 -180
0z"/>
</g>
</svg>
