<?xml version="1.0" encoding="utf-8"?>
<!-- Generator: Adobe Illustrator 21.0.2, SVG Export Plug-In . SVG Version: 6.00 Build 0)  -->
<svg version="1.1" id="Isolation_Mode" xmlns="http://www.w3.org/2000/svg" xmlns:xlink="http://www.w3.org/1999/xlink" x="0px"
	 y="0px" viewBox="0 0 64 39.8" style="enable-background:new 0 0 64 39.8;" xml:space="preserve">
<style type="text/css">
	.st0{fill:url(#SVGID_1_);}
	.st1{fill:url(#SVGID_2_);}
	.st2{fill:url(#SVGID_3_);}
	.st3{fill:url(#SVGID_4_);}
	.st4{fill:#D6D7D7;}
</style>
<g>
	<g>
		<g>
			
				<linearGradient id="SVGID_1_" gradientUnits="userSpaceOnUse" x1="20.1313" y1="-10.3566" x2="44.4877" y2="51.7348" gradientTransform="matrix(1 0 0 -1 0 39.8)">
				<stop  offset="0" style="stop-color:#070708"/>
				<stop  offset="0.2686" style="stop-color:#17181A"/>
				<stop  offset="1" style="stop-color:#404040"/>
			</linearGradient>
			<path class="st0" d="M64,37.4c0,1.4-1.1,2.4-2.4,2.4H2.4C1,39.8,0,38.7,0,37.4v-35C0,1,1.1,0,2.4,0h59.1c1.4,0,2.4,1.1,2.4,2.4
				L64,37.4L64,37.4z"/>
			
				<linearGradient id="SVGID_2_" gradientUnits="userSpaceOnUse" x1="63.5179" y1="20.6632" x2="-32.6807" y2="17.4565" gradientTransform="matrix(1 0 0 -1 0 39.8)">
				<stop  offset="0" style="stop-color:#010202"/>
				<stop  offset="0.2582" style="stop-color:#030404"/>
				<stop  offset="0.3804" style="stop-color:#0B0C0C"/>
				<stop  offset="0.474" style="stop-color:#181818"/>
				<stop  offset="0.5531" style="stop-color:#2A2B2B"/>
				<stop  offset="0.6231" style="stop-color:#424343"/>
				<stop  offset="0.6865" style="stop-color:#5F6060"/>
				<stop  offset="0.745" style="stop-color:#828383"/>
				<stop  offset="0.7998" style="stop-color:#ABACAC"/>
				<stop  offset="0.8495" style="stop-color:#D8D8D8"/>
				<stop  offset="0.8871" style="stop-color:#FFFFFF"/>
			</linearGradient>
			<path class="st1" d="M61.6,0h-45l23.7,39.9h21.3c1.4,0,2.4-1.1,2.4-2.4v-35C64,1.1,62.9,0,61.6,0z"/>
		</g>
		<g>
			
				<linearGradient id="SVGID_3_" gradientUnits="userSpaceOnUse" x1="10.35" y1="31.1798" x2="10.35" y2="14.1606" gradientTransform="matrix(1 0 0 -1 0 39.8)">
				<stop  offset="0" style="stop-color:#FECA41"/>
				<stop  offset="9.693880e-02" style="stop-color:#CA7C22"/>
				<stop  offset="0.1888" style="stop-color:#FDDB7B"/>
				<stop  offset="0.4201" style="stop-color:#F8AB49"/>
				<stop  offset="0.5538" style="stop-color:#AA6016"/>
				<stop  offset="0.6562" style="stop-color:#F8AB49"/>
				<stop  offset="0.7903" style="stop-color:#F9F19D"/>
				<stop  offset="0.8779" style="stop-color:#FCE37B"/>
				<stop  offset="1" style="stop-color:#FECA41"/>
			</linearGradient>
			<path class="st2" d="M14.6,16c0,0.7-0.5,1.2-1.2,1.2H7.3c-0.7,0-1.2-0.5-1.2-1.2v-4.3c0-0.7,0.5-1.2,1.2-1.2h6.1
				c0.7,0,1.2,0.5,1.2,1.2C14.6,11.7,14.6,16,14.6,16z"/>
			
				<linearGradient id="SVGID_4_" gradientUnits="userSpaceOnUse" x1="10.4" y1="35.3049" x2="10.4" y2="13.9956" gradientTransform="matrix(1 0 0 -1 0 39.8)">
				<stop  offset="0" style="stop-color:#FECA41"/>
				<stop  offset="9.693880e-02" style="stop-color:#CA7C22"/>
				<stop  offset="0.1888" style="stop-color:#FDDB7B"/>
				<stop  offset="0.4201" style="stop-color:#F8AB49"/>
				<stop  offset="0.5538" style="stop-color:#AA6016"/>
				<stop  offset="0.6562" style="stop-color:#F8AB49"/>
				<stop  offset="0.7903" style="stop-color:#F9F19D"/>
				<stop  offset="0.8779" style="stop-color:#FCE37B"/>
				<stop  offset="1" style="stop-color:#FECA41"/>
			</linearGradient>
			<path class="st3" d="M14.6,12.6v-0.2H13v-2h-0.2v2h-1.3c-0.2-0.5-0.6-0.9-1.2-1v-1h-0.2v1c-0.6,0-1.1,0.4-1.3,1h-1v-2H7.7v2H6.1
				v0.2h1.6v2.2H6.1v0.1h1.6v2.3h0.2v-2.3H9c0.1,0.6,0.7,1.1,1.3,1.1v1.2h0.2V16c0.6-0.1,1.1-0.5,1.2-1.1h1.2v2.3h0.2v-2.3h1.6v-0.2
				h-0.9v-2.2h0.8V12.6z M8.9,14.8H7.8v-2.2h1.1c0,0.1,0,0.2,0,0.3c0,0.3,0.1,0.6,0.3,0.9c-0.2,0.3-0.3,0.6-0.3,0.9
				C8.9,14.7,8.9,14.7,8.9,14.8z M10.3,15.9c-0.7,0-1.2-0.6-1.2-1.2c0-0.3,0.1-0.6,0.3-0.8v-0.1v-0.1c-0.2-0.2-0.3-0.5-0.3-0.8
				c0-0.7,0.6-1.2,1.2-1.2c0.7,0,1.2,0.6,1.2,1.2c0,0.3-0.1,0.6-0.3,0.8v0.1v0.1c0.2,0.2,0.3,0.5,0.3,0.8
				C11.6,15.3,11,15.9,10.3,15.9z M13.5,14.8h-1.8c0-0.1,0-0.1,0-0.2c0-0.3-0.1-0.6-0.3-0.9c0.2-0.3,0.3-0.6,0.3-0.9
				c0-0.1,0-0.2,0-0.3h1.8V14.8z"/>
		</g>
		<g>
			<path class="st4" d="M6.5,21.9l-0.2-0.2l0.6-0.6h0.5v3H7v-2.6c0-0.1,0-0.1,0-0.1l0,0L6.5,21.9z"/>
			<path class="st4" d="M8,24v-0.5c0-0.1,0-0.1,0-0.1s0,0,0.1-0.1L9.5,22l0.1-0.1v-0.1v-0.4v-0.1l0,0c0,0,0,0-0.1,0c0,0,0,0-0.1,0
				H8.6c-0.1,0-0.1,0-0.1,0s0,0-0.1,0l0,0c0,0,0,0,0,0.1v0.1H8v-0.2c0-0.1,0-0.2,0.1-0.2L8.2,21c0.1-0.1,0.1-0.1,0.2-0.1h1.1
				c0.1,0,0.1,0,0.2,0.1l0.1,0.1c0.1,0.1,0.1,0.1,0.1,0.2v0.6c0,0.1,0,0.1,0,0.1s0,0.1-0.1,0.1l-1.4,1.3l-0.1,0.1v0.1l0,0h1.6v0.3H8
				V24z"/>
			<path class="st4" d="M12.3,22.5l0.2,0.1l0.1,0.1v0.1v0.8c0,0.1,0,0.1,0,0.1s0,0.1-0.1,0.1l-0.1,0.1C12.3,24,12.3,24,12.2,24H11
				c-0.1,0-0.1,0-0.2-0.1l-0.1-0.1c-0.1-0.1-0.1-0.1-0.1-0.2v-0.2H11v0.1v0.1l0,0c0,0,0,0,0.1,0c0,0,0,0,0.1,0H12c0.1,0,0.1,0,0.1,0
				s0,0,0.1,0l0,0c0,0,0,0,0-0.1v-0.6c0-0.1,0-0.1-0.1-0.2L12,22.6l-0.1-0.1h-0.1h-0.7v-0.3h0.6c0.1,0,0.1,0,0.1,0s0,0,0.1-0.1
				L12,22l0.1-0.1v-0.1v-0.5v-0.1l0,0c0,0,0,0-0.1,0c0,0,0,0-0.1,0h-0.7c-0.1,0-0.1,0-0.1,0s0,0-0.1,0l0,0c0,0,0,0,0,0.1v0.1h-0.4
				v-0.2c0-0.1,0-0.2,0.1-0.2l0.1-0.1c0.1-0.1,0.1-0.1,0.2-0.1h1c0.1,0,0.1,0,0.2,0.1l0.1,0.1c0.1,0.1,0.1,0.1,0.1,0.2v0.7V22
				c0,0,0,0-0.1,0.1l-0.1,0.1l-0.1,0.1l0,0C12.2,22.4,12.2,22.4,12.3,22.5z"/>
			<path class="st4" d="M14.6,22.1H15v0.8h0.4v0.3H15v0.7h-0.4v-0.7h-1.5v-0.3l1.5-1.9H15l-1.4,1.9L13.5,23l0,0h1.1V22.1z"/>
			<path class="st4" d="M19.9,22h1c0.1,0,0.1,0,0.2,0.1l0.1,0.1c0.1,0.1,0.1,0.1,0.1,0.2v1.2c0,0.1,0,0.2-0.1,0.2l-0.1,0.1
				C21,24,21,24,20.9,24h-1.3c-0.1,0-0.1,0-0.2-0.1l-0.1-0.1c-0.1-0.1-0.1-0.1-0.1-0.2v-0.2h0.4v0.1v0.1l0,0c0,0,0,0,0.1,0
				c0,0,0,0,0.1,0h1c0.1,0,0.1,0,0.1,0s0,0,0.1,0l0,0c0,0,0,0,0-0.1v-1v-0.1l0,0c0,0,0,0-0.1,0c0,0,0,0-0.1,0H20
				c-0.1,0-0.1,0-0.2,0.1s-0.1,0.1-0.1,0.2h-0.4v-1.6h2v0.3h-1.6v0.9l0,0c0,0,0-0.1,0.1-0.1C19.8,22,19.8,22,19.9,22z"/>
			<path class="st4" d="M24.1,21.6h-0.4v-0.1v-0.1l0,0c0,0,0,0-0.1,0c0,0,0,0-0.1,0h-1c-0.1,0-0.1,0-0.1,0s0,0-0.1,0l0,0
				c0,0,0,0,0,0.1v0.8l0,0l0,0c0.1-0.1,0.2-0.1,0.2-0.1h1.2c0.1,0,0.1,0,0.2,0.1l0.1,0.1c0.1,0.1,0.1,0.1,0.1,0.2v1.1
				c0,0.1,0,0.2-0.1,0.2h0C23.9,24,23.9,24,23.8,24h-1.4c-0.1,0-0.1,0-0.2-0.1l-0.1-0.1C22,23.7,22,23.7,22,23.6v-2.2
				c0-0.1,0-0.2,0.1-0.2l0.1-0.1c0.1-0.1,0.1-0.1,0.2-0.1h1.3c0.1,0,0.1,0,0.2,0.1l0.1,0.1c0.1,0.1,0.1,0.1,0.1,0.2
				C24.1,21.4,24.1,21.6,24.1,21.6z M23.8,23.5v-0.9v-0.1l0,0c0,0,0,0-0.1,0c0,0,0,0-0.1,0h-1c-0.1,0-0.1,0-0.1,0s-0.1,0-0.1,0.1
				c-0.1,0-0.1,0.1-0.1,0.1v0.9v0.1l0,0c0,0,0,0,0.1,0c0,0,0,0,0.1,0h1.1c0.1,0,0.1,0,0.1,0s0,0,0.1,0
				C23.8,23.6,23.8,23.6,23.8,23.5C23.8,23.6,23.8,23.5,23.8,23.5z"/>
			<path class="st4" d="M25,24l1.4-2.6c0,0,0-0.1,0.1-0.1h-1.8V21h2.2v0.3l-1.4,2.6L25,24L25,24z"/>
			<path class="st4" d="M27.5,22.7l0.2-0.2l0.1-0.1l0,0c0,0-0.1,0-0.1-0.1l-0.1-0.1l-0.1-0.1v-0.7c0-0.1,0-0.2,0.1-0.2l0.1-0.1
				c0.1-0.1,0.1-0.1,0.2-0.1h1.3c0.1,0,0.1,0,0.2,0.1l0.1,0.1c0.1,0.1,0.1,0.1,0.1,0.2v0.7c0,0.1,0,0.1-0.1,0.1l-0.1,0.1l-0.1,0.1
				l0,0c0,0,0.1,0,0.1,0.1l0.2,0.2c0,0,0.1,0.1,0.1,0.2v0.8c0,0.1,0,0.2-0.1,0.2c0,0-0.1,0-0.1,0.1c-0.1,0.1-0.1,0.1-0.2,0.1h-1.4
				c-0.1,0-0.1,0-0.2-0.1l-0.1-0.1c-0.1-0.1-0.1-0.1-0.1-0.2v-0.8C27.5,22.7,27.5,22.7,27.5,22.7z M29,22.6h-0.9H28c0,0,0,0-0.1,0
				l-0.1,0.1c0,0-0.1,0-0.1,0.1c0,0,0,0,0,0.1v0.6v0.1l0,0c0,0,0,0,0.1,0c0,0,0,0,0.1,0H29c0.1,0,0.1,0,0.1,0s0,0,0.1,0l0,0
				c0,0,0,0,0-0.1v-0.6v-0.1c0,0,0,0-0.1-0.1L29,22.6C29.1,22.6,29.1,22.6,29,22.6C29.1,22.6,29,22.6,29,22.6z M29.1,21.3h-1
				c-0.1,0-0.1,0-0.1,0s0,0-0.1,0l0,0c0,0,0,0,0,0.1V22v0.1c0,0,0,0,0.1,0.1l0.1,0.1h0.1c0,0,0,0,0.1,0H29c0.1,0,0.1,0,0.1,0
				s0,0,0.1,0l0.1-0.1c0,0,0.1,0,0.1-0.1c0,0,0,0,0-0.1v-0.6v-0.1l0,0C29.2,21.3,29.2,21.3,29.1,21.3L29.1,21.3z"/>
			<path class="st4" d="M33.6,23.4H34v0.1v0.1l0,0c0,0,0,0,0.1,0c0,0,0,0,0.1,0h1c0.1,0,0.1,0,0.1,0s0,0,0.1,0l0,0c0,0,0,0,0-0.1
				v-0.8l0,0l0,0c-0.1,0.1-0.2,0.1-0.2,0.1H34c-0.1,0-0.1,0-0.2-0.1l-0.1-0.1c-0.1-0.1-0.1-0.1-0.1-0.2v-1.1c0-0.1,0-0.2,0.1-0.2
				l0.1-0.1c0.1-0.1,0.1-0.1,0.2-0.1h1.4c0.1,0,0.1,0,0.2,0.1l0.1,0.1c0.1,0.1,0.1,0.1,0.1,0.2v2.2c0,0.1,0,0.2-0.1,0.2l-0.1,0.2
				C35.5,24,35.5,24,35.4,24H34c-0.1,0-0.1,0-0.2-0.1l-0.1-0.1c-0.1-0.1-0.1-0.1-0.1-0.2C33.6,23.6,33.6,23.4,33.6,23.4z M33.9,21.5
				v0.9v0.1l0,0c0,0,0,0,0.1,0c0,0,0,0,0.1,0h1c0.1,0,0.1,0,0.1,0s0.1,0,0.1-0.1c0.1,0,0.1-0.1,0.1-0.1v-0.9v-0.1l0,0c0,0,0,0-0.1,0
				c0,0,0,0-0.1,0h-1.1c-0.1,0-0.1,0-0.1,0s0,0-0.1,0C34,21.4,33.9,21.4,33.9,21.5C33.9,21.4,33.9,21.4,33.9,21.5z"/>
			<path class="st4" d="M36.9,21h1.7c0.1,0,0.1,0,0.2,0.1l0.1,0.1c0.1,0.1,0.1,0.1,0.1,0.2v2.2c0,0.1,0,0.2-0.1,0.2l-0.1,0.1
				C38.7,24,38.7,24,38.6,24h-1.7c-0.1,0-0.1,0-0.2-0.1l-0.1-0.1c-0.1-0.1-0.1-0.1-0.1-0.2v-2.2c0-0.1,0-0.2,0.1-0.2l0.1-0.1
				C36.8,21,36.9,21,36.9,21z M38.7,23.5v-2v-0.1l0,0c0,0,0,0-0.1,0c0,0,0,0-0.1,0h-1.4c-0.1,0-0.1,0-0.1,0s0,0-0.1,0l0,0
				c0,0,0,0,0,0.1v2v0.1l0,0c0,0,0,0,0.1,0c0,0,0,0,0.1,0h1.4C38.6,23.6,38.6,23.6,38.7,23.5C38.6,23.6,38.6,23.6,38.7,23.5
				C38.7,23.6,38.7,23.6,38.7,23.5C38.7,23.6,38.7,23.5,38.7,23.5z"/>
			<path class="st4" d="M39.9,21.9l-0.2-0.2l0.6-0.6h0.5v3h-0.3v-2.6c0-0.1,0-0.1,0-0.1l0,0L39.9,21.9z"/>
			<path class="st4" d="M41.4,24v-0.5c0-0.1,0-0.1,0-0.1s0,0,0.1-0.1l1.4-1.3l0.1-0.1v-0.1v-0.4v-0.1l0,0c0,0,0,0-0.1,0
				c0,0,0,0-0.1,0H42c-0.1,0-0.1,0-0.1,0s0,0-0.1,0l0,0c0,0,0,0,0,0.1v0.1h-0.4v-0.2c0-0.1,0-0.2,0.1-0.2l0.1-0.1
				c0.1-0.1,0.1-0.1,0.2-0.1h1.1c0.1,0,0.1,0,0.2,0.1l0.1,0.1c0.1,0.1,0.1,0.1,0.1,0.2v0.6c0,0.1,0,0.1,0,0.1s0,0.1-0.1,0.1
				l-1.4,1.3l-0.1,0.1v0.1l0,0h1.6v0.3h-1.9V24z"/>
			<path class="st4" d="M48.9,22.5l0.2,0.1l0.1,0.1v0.1v0.8c0,0.1,0,0.1,0,0.1s0,0.1-0.1,0.1l-0.2,0.1C48.8,24,48.8,24,48.7,24h-1.2
				c-0.1,0-0.1,0-0.2-0.1l-0.1-0.1c-0.1-0.1-0.1-0.1-0.1-0.2v-0.2h0.4v0.1v0.1l0,0c0,0,0,0,0.1,0c0,0,0,0,0.1,0h0.8
				c0.1,0,0.1,0,0.1,0s0,0,0.1,0l0,0c0,0,0,0,0-0.1v-0.6c0-0.1,0-0.1-0.1-0.2l-0.1-0.1l-0.1-0.1h-0.1h-0.7v-0.3h0.6
				c0.1,0,0.1,0,0.1,0s0,0,0.1-0.1l0.1-0.1l0.1-0.1v-0.1v-0.5v-0.1l0,0c0,0,0,0-0.1,0c0,0,0,0-0.1,0h-0.7c-0.1,0-0.1,0-0.1,0
				s0,0-0.1,0l0,0c0,0,0,0,0,0.1v0.1h-0.4v-0.2c0-0.1,0-0.2,0.1-0.2l0.1-0.1c0.1-0.1,0.1-0.1,0.2-0.1h1c0.1,0,0.1,0,0.2,0.1l0.1,0.1
				c0.1,0.1,0.1,0.1,0.1,0.2v0.7V22c0,0,0,0-0.1,0.1l-0.1,0.1l-0.1,0.1l0,0C48.8,22.4,48.8,22.4,48.9,22.5z"/>
			<path class="st4" d="M51.2,22.1h0.4v0.8H52v0.3h-0.4v0.7h-0.4v-0.7h-1.5v-0.3l1.5-1.9h0.4l-1.5,1.9L50,23l0,0h1.1v-0.9H51.2z"/>
			<path class="st4" d="M53.3,22h1c0.1,0,0.1,0,0.2,0.1l0.1,0.1c0.1,0.1,0.1,0.1,0.1,0.2v1.2c0,0.1,0,0.2-0.1,0.2l-0.2,0.1
				C54.3,24,54.3,24,54.2,24H53c-0.1,0-0.1,0-0.2-0.1l-0.1-0.1c-0.1-0.1-0.1-0.1-0.1-0.2v-0.2H53v0.1v0.1l0,0c0,0,0,0,0.1,0
				c0,0,0,0,0.1,0h1c0.1,0,0.1,0,0.1,0s0,0,0.1,0l0,0c0,0,0,0,0-0.1v-1v-0.1l0,0c0,0,0,0-0.1,0c0,0,0,0-0.1,0h-0.8
				c-0.1,0-0.1,0-0.2,0.1c-0.2,0-0.2,0-0.2,0.1h-0.4V21h2v0.3H53v0.9l0,0c0,0,0-0.1,0.1-0.1C53.1,22,53.2,22,53.3,22z"/>
			<path class="st4" d="M57.5,21.6h-0.4v-0.1v-0.1l0,0c0,0,0,0-0.1,0c0,0,0,0-0.1,0h-1c-0.1,0-0.1,0-0.1,0s0,0-0.1,0l0,0
				c0,0,0,0,0,0.1v0.8l0,0l0,0c0.1-0.1,0.2-0.1,0.2-0.1h1.2c0.1,0,0.1,0,0.2,0.1l0.1,0.1c0.1,0.1,0.1,0.1,0.1,0.2v1.1
				c0,0.1,0,0.2-0.1,0.2h0C57.3,24,57.3,24,57.2,24h-1.4c-0.1,0-0.1,0-0.2-0.1l-0.1-0.1c-0.1-0.1-0.1-0.1-0.1-0.2v-2.2
				c0-0.1,0-0.2,0.1-0.2l0.1-0.1c0.1-0.1,0.1-0.1,0.2-0.1h1.3c0.1,0,0.1,0,0.2,0.1l0.1,0.1c0.1,0.1,0.1,0.1,0.1,0.2
				C57.5,21.4,57.5,21.6,57.5,21.6z M57.2,23.5v-0.9v-0.1l0,0c0,0,0,0-0.1,0c0,0,0,0-0.1,0h-1c-0.1,0-0.1,0-0.1,0s-0.1,0-0.1,0.1
				c-0.1,0-0.1,0.1-0.1,0.1v0.9v0.1l0,0c0,0,0,0,0.1,0c0,0,0,0,0.1,0H57c0.1,0,0.1,0,0.1,0s0,0,0.1,0C57.2,23.6,57.2,23.6,57.2,23.5
				C57.2,23.6,57.2,23.5,57.2,23.5z"/>
		</g>
		<g>
			<path class="st4" d="M8,33.2L8,33.2c0-0.1,0-0.1,0-0.2v-1.8h0.3v2.5H8l-1.3-2l0,0c0,0.1,0,0.1,0,0.2v1.8H6.4v-2.5h0.3L8,33.2z"/>
			<path class="st4" d="M10.1,33.5L10.1,33.5C10.1,33.6,10.1,33.6,10.1,33.5c-0.1,0.1-0.2,0.1-0.2,0.1s0,0-0.1,0H9.2
				c-0.1,0-0.1,0-0.2-0.1l0,0c-0.1,0-0.1-0.1-0.1-0.2v-0.4c0-0.1,0-0.1,0.1-0.2l0.1-0.1c0.1,0,0.1-0.1,0.2-0.1h0.6H10l0,0
				c0,0,0,0,0,0.1l0,0v-0.4v-0.1l0,0l0,0c0,0,0,0-0.1,0H9.3H9.2c0,0,0,0-0.1,0.1L8.9,32H9l0.1-0.1c0,0,0,0,0.1,0H10
				c0.1,0,0.1,0,0.2,0.1l0.1,0.1c0.1,0,0.1,0.1,0.1,0.2v1.1v0.1l0,0l0,0c0,0,0,0,0,0.1v0.2h-0.1h-0.1C10.2,33.7,10.2,33.7,10.1,33.5
				C10.1,33.6,10.1,33.6,10.1,33.5z M9.2,33v0.3v0.1l0,0l0,0c0,0,0,0,0.1,0h0.4h0.1c0,0,0,0,0.1,0c0,0,0.1,0,0.1-0.1c0,0,0,0,0-0.1
				V33v-0.1l0,0l0,0c0,0,0,0-0.1,0H9.4L9.2,33L9.2,33C9.2,32.9,9.2,32.9,9.2,33L9.2,33z"/>
			<path class="st4" d="M12.2,32.1L12.2,32.1C12.3,32.1,12.3,32,12.2,32.1l0.1-0.1h0.1c0,0,0,0,0.1,0h0.6c0.1,0,0.1,0,0.2,0.1
				l0.1,0.1c0.1,0,0.1,0.1,0.1,0.2v1.5h-0.3v-1.4v-0.1l0,0l0,0c0,0,0,0-0.1,0h-0.4h-0.1c0,0,0,0-0.1,0s-0.1,0.1-0.1,0.1v1.4H12v-1.4
				v-0.1l0,0l0,0c0,0,0,0-0.1,0h-0.4h-0.1c0,0,0,0-0.1,0c0,0-0.1,0-0.1,0.1c0,0,0,0,0,0.1v1.3h-0.3v-1.4v-0.1l0,0l0,0c0,0,0,0,0-0.1
				v-0.4H11h0.1c0,0,0,0,0.1,0l0.1,0.1l0,0c0,0,0-0.1,0.1-0.1h0.1c0,0,0,0,0.1,0H12C12,31.9,12.1,31.9,12.2,32.1
				C12.2,32,12.2,32.1,12.2,32.1z"/>
			<path class="st4" d="M15.2,33.4l0.2,0.2l-0.1,0.1l-0.1,0.1c0,0,0,0-0.1,0h-0.9c-0.1,0-0.1,0-0.2-0.1l0-0.2
				c-0.1,0-0.1-0.1-0.1-0.2v-1.1c0-0.1,0-0.1,0.1-0.2l0.1-0.1c0.1,0,0.1-0.1,0.2-0.1H15c0,0,0.1,0,0.2,0.1l0.1,0.1
				c0.1,0,0.1,0.1,0.1,0.2v0.7h-1.2v0.3v0.1l0,0l0,0c0,0,0,0,0.1,0H15C15.1,33.4,15.1,33.4,15.2,33.4C15.1,33.4,15.2,33.4,15.2,33.4
				z M15.1,32.7v-0.4v-0.1l0,0l0,0c0,0,0,0-0.1,0h-0.6h-0.1l0,0l0,0c0,0,0,0,0,0.1v0.4H15.1z"/>
			<path class="st4" d="M18,32.6h-0.8c-0.1,0-0.1,0-0.2-0.1l-0.1-0.1l-0.1-0.1v-0.7c0-0.1,0-0.1,0.1-0.2l0.1-0.1
				c0.1,0,0.1-0.1,0.2-0.1h0.9c0.1,0,0.1,0,0.2,0.1l0.1,0.1c0.1,0,0.1,0.1,0.1,0.2v0.1h-0.3v-0.1v-0.1l0,0l0,0c0,0,0,0-0.1,0h-0.7
				h-0.1l0,0l0,0c0,0,0,0,0,0.1v0.6v0.1l0,0l0,0c0,0,0,0,0.1,0h0.8c0.1,0,0.1,0,0.2,0.1l0.1,0.1c0.1,0,0.1,0.1,0.1,0.2v0.7
				c0,0.1,0,0.1-0.1,0.2l-0.1,0.1c-0.1,0-0.1,0.1-0.2,0.1h-1c-0.1,0-0.1,0-0.2-0.1l-0.1-0.1c-0.1,0-0.1-0.1-0.1-0.2v-0.1H17v0.1v0.1
				l0,0l0,0c0,0,0,0,0.1,0H18h0.1l0,0l0,0c0,0,0,0,0-0.1v-0.6v-0.1l0,0C18.1,32.6,18.1,32.6,18,32.6L18,32.6z"/>
			<path class="st4" d="M19.8,33.7h-0.6c-0.1,0-0.1,0-0.2-0.1l0-0.1c-0.1,0-0.1-0.1-0.1-0.2v-1.4h0.3v1.4v0.1l0,0l0,0c0,0,0,0,0.1,0
				h0.4h0.1c0,0,0,0,0.1,0c0,0,0.1,0,0.1-0.1c0,0,0,0,0-0.1v-1.3h0.3v1.4v0.1l0,0l0,0c0,0,0,0,0,0.1v0.2h-0.1h-0.1c0,0,0,0-0.1,0
				H19.8L19.8,33.7C19.9,33.6,19.9,33.7,19.8,33.7C19.9,33.7,19.9,33.7,19.8,33.7C19.9,33.7,19.8,33.7,19.8,33.7z"/>
			<path class="st4" d="M20.8,31.9H21h0.1c0,0,0,0,0.1,0l0.1,0.1l0,0c0,0,0-0.1,0.1-0.1h0.1c0,0,0,0,0.1,0h0.3c0.1,0,0.1,0,0.2,0.1
				l0.1,0.1L22,32.3l0,0l0,0c0,0,0,0-0.1,0h-0.2h-0.1c0,0,0,0-0.1,0c0,0-0.1,0-0.1,0.1c0,0,0,0,0,0.1v1.3h-0.3v-1.4v-0.1l0,0l0,0
				c0,0,0,0,0-0.1v-0.3H20.8z"/>
			<path class="st4" d="M22.3,31.9h0.1h0.1c0,0,0,0,0.1,0l0.1,0.1l0,0c0,0,0-0.1,0.1-0.1h0.1c0,0,0,0,0.1,0h0.6c0.1,0,0.1,0,0.2,0.1
				l0.1,0.1c0.1,0,0.1,0.1,0.1,0.2v1.5h-0.3v-1.4v-0.1l0,0l0,0c0,0,0,0-0.1,0h-0.5H23c0,0,0,0-0.1,0c0,0-0.1,0-0.1,0.1
				c0,0,0,0,0,0.1v1.3h-0.3v-1.4v-0.1l0,0l0,0c0,0,0,0,0-0.1v-0.3H22.3z"/>
			<path class="st4" d="M25.5,33.5L25.5,33.5C25.5,33.6,25.5,33.6,25.5,33.5c-0.1,0.1-0.2,0.1-0.2,0.1s0,0-0.1,0h-0.6
				c-0.1,0-0.1,0-0.2-0.1l-0.1-0.1c-0.1,0-0.1-0.1-0.1-0.2v-0.3c0-0.1,0-0.1,0.1-0.2l0.1-0.1c0.1,0,0.1-0.1,0.2-0.1h0.6h0.1l0,0
				c0,0,0,0,0,0.1l0,0v-0.4v-0.1l0,0l0,0c0,0,0,0-0.1,0h-0.6h-0.1c0,0,0,0-0.1,0.1L24.2,32l0.1-0.1l0.1-0.1c0,0,0,0,0.1,0h0.8
				c0.1,0,0.1,0,0.2,0.1l0.1,0.1c0.1,0,0.1,0.1,0.1,0.2v1.1v0.1l0,0l0,0c0,0,0,0,0,0.1v0.2h-0.1h-0.1C25.6,33.7,25.6,33.7,25.5,33.5
				C25.6,33.6,25.5,33.6,25.5,33.5z M24.6,33v0.3v0.1l0,0l0,0c0,0,0,0,0.1,0h0.4h0.1c0,0,0,0,0.1,0c0,0,0.1,0,0.1-0.1c0,0,0,0,0-0.1
				V33v-0.1l0,0l0,0c0,0,0,0-0.1,0h-0.5h-0.1l0,0C24.7,32.9,24.6,32.9,24.6,33L24.6,33z"/>
			<path class="st4" d="M27.7,32.1L27.7,32.1C27.7,32.1,27.7,32,27.7,32.1l0.1-0.1h0.1c0,0,0,0,0.1,0h0.6c0.1,0,0.1,0,0.2,0.1
				l0.1,0.1c0.1,0,0.1,0.1,0.1,0.2v1.5h-0.3v-1.4v-0.1l0,0l0,0c0,0,0,0-0.1,0H28h-0.1c0,0,0,0-0.1,0s-0.1,0.1-0.1,0.1v1.4h-0.3v-1.4
				v-0.1l0,0l0,0c0,0,0,0-0.1,0h-0.4h-0.1c0,0,0,0-0.1,0c0,0-0.1,0-0.1,0.1c0,0,0,0,0,0.1v1.3h-0.3v-1.4v-0.1l0,0l0,0c0,0,0,0,0-0.1
				v-0.4h0.1h0.1c0,0,0,0,0.1,0l0.1,0.1l0,0c0,0,0-0.1,0.1-0.1h0.1c0,0,0,0,0.1,0h0.5C27.5,31.9,27.5,31.9,27.7,32.1
				C27.6,32,27.7,32.1,27.7,32.1z"/>
			<path class="st4" d="M30.6,33.4l0.2,0.2l-0.1,0.1l-0.1,0.1c0,0,0,0-0.1,0h-0.9c-0.1,0-0.1,0-0.2-0.1l-0.1-0.1
				c-0.1,0-0.1-0.1-0.1-0.2v-1.1c0-0.1,0-0.1,0.1-0.2l0.1-0.1c0.1,0,0.1-0.1,0.2-0.1h0.8c0,0,0.1,0,0.2,0.1l0.1,0.1
				c0.1,0,0.1,0.1,0.1,0.2V33h-1.2v0.3v0.1l0,0l0,0c0,0,0,0,0.1,0h0.7C30.5,33.4,30.5,33.4,30.6,33.4L30.6,33.4z M30.5,32.7v-0.4
				v-0.1l0,0l0,0c0,0,0,0-0.1,0h-0.6h-0.1l0,0l0,0c0,0,0,0,0,0.1v0.4H30.5z"/>
		</g>
		<g>
			<path class="st4" d="M44.2,4.3h0.4c0.2,0,0.4,0.1,0.5,0.2s0.2,0.3,0.2,0.5c0,0.3-0.1,0.5-0.4,0.6c0.3,0.1,0.4,0.3,0.4,0.7
				c0,0.2,0,0.4-0.1,0.5c-0.2,0-0.3,0.1-0.5,0.1h-0.5V4.3z M44.5,4.6v0.9c0.1,0,0.2,0,0.3-0.1s0.1-0.2,0.1-0.3c0-0.2,0-0.3-0.1-0.4
				C44.8,4.6,44.7,4.6,44.5,4.6z M44.5,5.7v0.9c0.1,0,0.2,0,0.3-0.1s0.1-0.2,0.1-0.3c0-0.2,0-0.3-0.1-0.4
				C44.8,5.8,44.7,5.7,44.5,5.7z"/>
			<path class="st4" d="M46.8,6.9h-0.3V6.7l0,0c-0.1,0.2-0.2,0.2-0.3,0.2S46,6.8,45.9,6.7S45.8,6.3,45.8,6c0-0.3,0-0.6,0.1-0.7
				s0.2-0.2,0.3-0.2s0.1,0,0.2,0.1c0,0,0.1,0.1,0.1,0.2l0,0V5.2h0.3V6.9z M46.2,6.6c0.1,0,0.1-0.1,0.2-0.2c0-0.1,0-0.3,0-0.5
				s0-0.4,0-0.5s-0.1-0.1-0.2-0.1c-0.1,0-0.1,0-0.2,0.1c0,0.1,0,0.2,0,0.4c0,0.3,0,0.4,0,0.5C46.1,6.6,46.1,6.6,46.2,6.6z"/>
			<path class="st4" d="M47.5,5.1v0.2l0,0c0.1-0.1,0.2-0.2,0.3-0.2c0.3,0,0.4,0.1,0.4,0.4v1.4H48V5.6c0-0.2-0.1-0.3-0.2-0.3
				c-0.1,0-0.1,0-0.2,0.1c0,0-0.1,0.1-0.1,0.2v1.3h-0.3V5.1H47.5z"/>
			<path class="st4" d="M49.9,6.9h-0.4l-0.5-1l0,0v1h-0.3V4.2H49v1.7l0,0l0.4-0.8h0.4l-0.4,0.8L49.9,6.9z"/>
			<path class="st4" d="M52.3,6.9H52l-0.7-1.8l0,0v1.8H51V4.3h0.3L52,6.1l0,0V4.3h0.3V6.9z"/>
			<path class="st4" d="M53.9,6.9h-0.3V6.7l0,0c-0.1,0.2-0.2,0.2-0.3,0.2S53.1,6.8,53,6.7S52.9,6.3,52.9,6c0-0.3,0-0.6,0.1-0.7
				s0.2-0.2,0.3-0.2s0.1,0,0.2,0.1c0,0,0.1,0.1,0.1,0.2l0,0V5.2h0.3V6.9z M53.3,6.6c0.1,0,0.1-0.1,0.2-0.2c0-0.1,0-0.3,0-0.5
				s0-0.4,0-0.5s-0.1-0.1-0.2-0.1c-0.1,0-0.1,0-0.2,0.1c0,0.1,0,0.2,0,0.4c0,0.3,0,0.4,0,0.5C53.2,6.6,53.2,6.6,53.3,6.6z"/>
			<path class="st4" d="M56.2,6.9h-0.3V5.6c0-0.2-0.1-0.3-0.2-0.3c-0.1,0-0.2,0.1-0.2,0.3v1.3h-0.3V5.6c0-0.1,0-0.1-0.1-0.2L55,5.3
				c-0.1,0-0.2,0.1-0.2,0.3v1.3h-0.3V5.1h0.3v0.2c0.1-0.1,0.2-0.2,0.4-0.2s0.3,0.1,0.3,0.2c0.1-0.1,0.2-0.2,0.4-0.2
				c0.3,0,0.4,0.1,0.4,0.4v1.4H56.2z"/>
			<path class="st4" d="M57.7,6.1H57c0,0.2,0,0.3,0,0.4s0.1,0.1,0.2,0.1c0.1,0,0.1,0,0.2-0.1c0-0.1,0-0.1,0-0.3h0.3
				c0,0.4-0.2,0.6-0.5,0.6c-0.4,0-0.6-0.3-0.6-0.9s0.2-1,0.6-1c0.1,0,0.3,0.1,0.4,0.2c0.1,0.1,0.2,0.3,0.2,0.7v0.3H57.7z M57.4,5.8
				c0-0.2,0-0.3,0-0.4s-0.1-0.1-0.2-0.1c-0.1,0-0.1,0-0.2,0.1c0,0.1,0,0.2,0,0.4H57.4z"/>
		</g>
		<g>
			<path class="st4" d="M7.4,7C7.3,7.1,7.2,7.1,7,7.1C6.8,7.1,6.6,7,6.4,6.8C6.2,6.6,6.1,6.2,6.1,5.7c0-0.6,0.1-1,0.3-1.3
				C6.6,4.2,6.8,4.1,7,4.1c0.1,0,0.2,0,0.3,0v0.4c-0.1,0-0.2-0.1-0.2-0.1c-0.2,0-0.3,0.1-0.4,0.2C6.6,4.8,6.5,5.1,6.5,5.5
				c0,0.3,0,0.5,0,0.6c0,0.2,0.1,0.3,0.2,0.4S6.9,6.6,7,6.6c0.1,0,0.2,0,0.3-0.1L7.4,7L7.4,7z"/>
			<path class="st4" d="M8.7,5.3c-0.2,0-0.3,0-0.4,0.1C8.2,5.5,8.2,5.6,8.2,5.8V7H7.8V5h0.4v0.3l0,0C8.3,5.1,8.5,5,8.6,5l0,0v0.3
				H8.7z"/>
			<path class="st4" d="M10.2,6.1H9.4c0,0.2,0,0.4,0,0.5s0.1,0.2,0.2,0.2c0.1,0,0.1,0,0.2-0.1c0-0.1,0-0.2,0-0.3h0.3
				c0,0.5-0.2,0.7-0.6,0.7c-0.4,0-0.6-0.3-0.6-1S9.1,5,9.5,5c0.2,0,0.3,0.1,0.4,0.2C10,5.3,10.1,5.6,10.1,6v0.1H10.2z M9.8,5.8
				c0-0.2,0-0.3,0-0.4S9.7,5.3,9.6,5.3c-0.1,0-0.2,0-0.2,0.1s0,0.2,0,0.4H9.8z"/>
			<path class="st4" d="M11.6,4H12v3h-0.4V6.7l0,0C11.5,6.9,11.4,7,11.2,7c-0.1,0-0.2,0-0.3-0.1s-0.1-0.2-0.2-0.3c0-0.1,0-0.3,0-0.6
				c0-0.3,0-0.5,0-0.7c0-0.1,0.1-0.2,0.2-0.3c0.1-0.1,0.2-0.1,0.3-0.1c0.2,0,0.3,0.1,0.4,0.3l0,0V4z M11.6,6c0-0.2,0-0.4,0-0.5
				s-0.1-0.2-0.2-0.2c-0.1,0-0.2,0.1-0.2,0.2S11.1,5.8,11.1,6c0,0.3,0,0.4,0,0.6c0,0.1,0.1,0.2,0.2,0.2c0.1,0,0.2-0.1,0.2-0.2
				C11.6,6.5,11.6,6.3,11.6,6z"/>
			<path class="st4" d="M12.4,4.4c0-0.1,0-0.1,0.1-0.1l0.1-0.1c0.1,0,0.1,0,0.1,0.1l0.1,0.1c0,0.1,0,0.1-0.1,0.1l-0.1,0.1
				c-0.1,0-0.1,0-0.1-0.1C12.4,4.5,12.4,4.5,12.4,4.4z M12.4,5h0.4v2h-0.4V5z"/>
			<path class="st4" d="M14,5.3h-0.2V7h-0.4V5.3h-0.2V5h0.2V4.5h0.4V5H14V5.3z"/>
			<path class="st4" d="M16.5,7c-0.1,0.1-0.2,0.1-0.4,0.1c-0.2,0-0.4-0.1-0.6-0.3c-0.2-0.2-0.3-0.6-0.3-1.1c0-0.6,0.1-1,0.3-1.3
				c0.2-0.2,0.4-0.3,0.6-0.3c0.1,0,0.2,0,0.3,0v0.4c-0.1,0-0.2-0.1-0.2-0.1c-0.2,0-0.3,0.1-0.4,0.2c-0.1,0.2-0.2,0.5-0.2,0.9
				c0,0.3,0,0.5,0,0.6s0.1,0.3,0.2,0.4c0.1,0.1,0.2,0.1,0.3,0.1c0.1,0,0.2,0,0.3-0.1V7H16.5z"/>
			<path class="st4" d="M18.2,7h-0.4V6.8l0,0c-0.1,0.2-0.2,0.3-0.4,0.3c-0.1,0-0.2-0.1-0.3-0.2C17,6.8,17,6.5,17,6.1s0-0.6,0.1-0.8
				c0.1-0.2,0.2-0.2,0.4-0.2c0.1,0,0.2,0,0.2,0.1c0.1,0,0.1,0.1,0.2,0.2l0,0V5.2h0.4V7H18.2z M17.6,6.7c0.1,0,0.2-0.1,0.2-0.2
				s0-0.3,0-0.6c0-0.2,0-0.4,0-0.5s-0.1-0.1-0.2-0.1s-0.2,0-0.2,0.1s-0.1,0.3-0.1,0.5c0,0.3,0,0.5,0,0.6C17.4,6.7,17.5,6.7,17.6,6.7
				z"/>
			<path class="st4" d="M19.5,5.3c-0.2,0-0.3,0-0.4,0.1S19,5.6,19,5.8V7h-0.4V5H19v0.3l0,0C19.1,5.1,19.3,5,19.4,5l0,0v0.3H19.5z"/>
			<path class="st4" d="M20.7,4H21v3h-0.4V6.7l0,0C20.5,6.9,20.4,7,20.2,7c-0.1,0-0.2,0-0.3-0.1c-0.1-0.1-0.1-0.2-0.2-0.3
				c0-0.1,0-0.3,0-0.6c0-0.3,0-0.5,0-0.7c0-0.1,0.1-0.2,0.2-0.3c0.1-0.1,0.2-0.1,0.3-0.1c0.2,0,0.3,0.1,0.4,0.3l0,0V4H20.7z M20.7,6
				c0-0.2,0-0.4,0-0.5s-0.1-0.2-0.2-0.2s-0.2,0.1-0.2,0.2S20.2,5.8,20.2,6c0,0.3,0,0.4,0,0.6c0,0.1,0.1,0.2,0.2,0.2s0.2-0.1,0.2-0.2
				C20.7,6.5,20.7,6.3,20.7,6z"/>
		</g>
		<g>
			<path class="st4" d="M7.6,26.4c0,0.3,0,0.5-0.1,0.7c-0.1,0.1-0.2,0.2-0.4,0.2c-0.2,0-0.3-0.1-0.4-0.2c-0.1-0.1-0.1-0.4-0.1-0.7
				s0-0.5,0.1-0.7c0.1-0.1,0.2-0.2,0.4-0.2c0.2,0,0.3,0.1,0.4,0.2C7.5,25.9,7.6,26.1,7.6,26.4z M6.7,26.4c0,0.2,0,0.4,0.1,0.5
				C6.8,27,6.9,27,7,27s0.2-0.1,0.2-0.2c0-0.1,0.1-0.3,0.1-0.5s0-0.4-0.1-0.5c0-0.1-0.1-0.2-0.2-0.2s-0.2,0.1-0.2,0.2
				C6.7,26,6.7,26.1,6.7,26.4z"/>
			<path class="st4" d="M8.6,27.2H8.3v-1.1c0-0.1,0-0.2,0-0.3c0,0,0,0-0.1,0.1c0,0-0.1,0.1-0.3,0.2l-0.1-0.2l0.5-0.4h0.2v1.7H8.6z"
				/>
			<path class="st4" d="M10.3,27.2H9.1V27l0.4-0.4c0.1-0.1,0.2-0.2,0.3-0.3c0-0.1,0.1-0.1,0.1-0.2c0,0,0-0.1,0-0.2
				c0-0.1,0-0.1-0.1-0.2c0,0-0.1-0.1-0.2-0.1c-0.1,0-0.1,0-0.2,0c-0.1,0-0.1,0.1-0.2,0.1l-0.1-0.2c0.1-0.1,0.2-0.1,0.3-0.2
				c0.1,0,0.2-0.1,0.3-0.1c0.2,0,0.3,0,0.4,0.1c0.1,0.1,0.1,0.2,0.1,0.3s0,0.1,0,0.2c0,0.1-0.1,0.1-0.1,0.2
				c-0.1,0.1-0.2,0.2-0.3,0.3l-0.3,0.3l0,0h0.8V27.2z"/>
			<path class="st4" d="M11.6,25.9c0,0.1,0,0.2-0.1,0.3s-0.2,0.1-0.3,0.1l0,0c0.1,0,0.2,0.1,0.3,0.1c0.1,0.1,0.1,0.2,0.1,0.3
				c0,0.2-0.1,0.3-0.2,0.4c-0.1,0.1-0.3,0.1-0.5,0.1s-0.3,0-0.5-0.1v-0.2c0.1,0,0.1,0.1,0.2,0.1c0.1,0,0.2,0,0.2,0
				c0.1,0,0.2,0,0.3-0.1c0.1,0,0.1-0.1,0.1-0.2c0-0.1,0-0.2-0.1-0.2s-0.2-0.1-0.3-0.1h-0.1v-0.2h0.1c0.3,0,0.4-0.1,0.4-0.3
				c0-0.1,0-0.1-0.1-0.2c0,0-0.1-0.1-0.2-0.1c-0.1,0-0.1,0-0.2,0c-0.1,0-0.1,0.1-0.2,0.1l-0.1-0.2c0.2-0.1,0.3-0.2,0.5-0.2
				s0.3,0,0.4,0.1C11.5,25.7,11.6,25.8,11.6,25.9z"/>
		</g>
		<g>
			<g>
				<path class="st4" d="M47.5,27.6h1.2c0,0,0.1,0,0.1,0.1l0.1,0.1l0.1,0.1v1.5c0,0.1,0,0.1-0.1,0.1l-0.1,0.1l-0.1,0.1h-1.2
					c0,0-0.1,0-0.1-0.1l-0.1-0.1l-0.1-0.1v-1.5c0-0.1,0-0.1,0.1-0.1l0.1-0.1C47.4,27.7,47.5,27.6,47.5,27.6z M48.8,29.4V28
					c0,0,0,0,0-0.1l0,0l0,0c0,0,0,0-0.1,0h-1h-0.1l0,0l0,0c0,0,0,0,0,0.1v1.4c0,0,0,0,0,0.1l0,0l0,0c0,0,0,0,0.1,0L48.8,29.4
					L48.8,29.4C48.7,29.5,48.7,29.5,48.8,29.4C48.7,29.5,48.7,29.5,48.8,29.4L48.8,29.4z"/>
				<path class="st4" d="M49.6,28.2L49.6,28.2l0.3-0.6h0.3v2.1H50v-1.8v-0.1l0,0L49.6,28.2z"/>
				<path class="st4" d="M51.9,27.6h0.2L50.5,30h-0.2L51.9,27.6z"/>
				<path class="st4" d="M52.3,28.8L52.3,28.8l0.2-0.1l0,0L52.3,28.8v-0.2v-0.1v-0.6c0-0.1,0-0.1,0.1-0.1l0.1-0.1l0.1-0.1h0.9
					c0,0,0.1,0,0.1,0.1l0.1,0.1l0.1,0.1v0.5v0.1l-0.1,0.1h-0.1l0,0h0.1l0.1,0.1v0.1v0.5c0,0.1,0,0.1-0.1,0.1c0,0,0,0-0.1,0.1
					l-0.1,0.1h-1c0,0-0.1,0-0.1-0.1c0,0-0.1,0-0.1-0.1l-0.1-0.1L52.3,28.8L52.3,28.8z M53.3,28.8h-0.6c0,0,0,0-0.1,0c0,0,0,0-0.1,0
					l0,0.1l0,0c0,0,0,0,0,0.1v0.4c0,0,0,0,0,0.1l0,0l0,0c0,0,0,0,0.1,0h0.8h0.1l0,0l0,0c0,0,0,0,0-0.1V29v-0.1l0,0L53.3,28.8
					C53.4,28.8,53.4,28.8,53.3,28.8C53.4,28.8,53.4,28.8,53.3,28.8z M53.4,27.8h-0.7h-0.1l0,0l0,0c0,0,0,0,0,0.1v0.4v0.1l0,0
					l0.1,0.1l0,0c0,0,0,0,0.1,0h0.5h0.1l0,0l0.1-0.1l0,0c0,0,0,0,0-0.1L53.4,27.8C53.5,27.9,53.5,27.9,53.4,27.8L53.4,27.8
					C53.5,27.9,53.4,27.8,53.4,27.8L53.4,27.8z"/>
				<path class="st4" d="M54.6,27.6h1.2c0,0,0.1,0,0.1,0.1l0.1,0.1l0.1,0.1v1.5c0,0.1,0,0.1-0.1,0.1l-0.1,0.1l-0.1,0.1h-1.2
					c0,0-0.1,0-0.1-0.1l-0.1-0.1l-0.1-0.1v-1.5c0-0.1,0-0.1,0.1-0.1l0.1-0.1C54.5,27.7,54.6,27.6,54.6,27.6z M55.8,29.4V28
					c0,0,0,0,0-0.1l0,0l0,0c0,0,0,0-0.1,0h-1h-0.1l0,0l0,0c0,0,0,0,0,0.1v1.4c0,0,0,0,0,0.1l0,0l0,0c0,0,0,0,0.1,0L55.8,29.4
					L55.8,29.4C55.8,29.5,55.8,29.5,55.8,29.4C55.8,29.5,55.8,29.5,55.8,29.4L55.8,29.4z"/>
			</g>
			<g>
				<path class="st4" d="M41.9,28.2L41.9,28.2L41.9,28.2l0.2-0.8h0.1L41.9,28.2L41.9,28.2l-0.4-0.8h0.1L41.9,28.2L41.9,28.2z"/>
				<path class="st4" d="M42.4,28.3l0.3-0.9h0.1l0.3,0.9H43l-0.1-0.2h-0.4L42.4,28.3L42.4,28.3z M42.7,27.5L42.7,27.5L42.7,27.5
					L42.5,28h0.4L42.7,27.5L42.7,27.5z"/>
				<path class="st4" d="M43.8,28.2L43.8,28.2l-0.5,0.1v-0.9h0.1v0.8C43.4,28.2,43.8,28.2,43.8,28.2z"/>
				<path class="st4" d="M43.9,27.4L43.9,27.4l0.1,0.9h-0.1V27.4z"/>
				<path class="st4" d="M44.3,28.3v-0.9h0.5c0,0,0,0,0.1,0l0.1,0.1l0,0V28l0,0l-0.1,0.1c0,0,0,0-0.1,0h-0.5V28.3z M44.9,28v-0.4
					l0,0h-0.1c0,0,0,0-0.1,0h-0.3v0.7h0.3C44.7,28.2,44.8,28.2,44.9,28L44.9,28C44.9,28.1,44.9,28.1,44.9,28z"/>
				<path class="st4" d="M41.8,28.9h0.7V29h-0.3v0.8H42V29L41.8,28.9L41.8,28.9z"/>
				<path class="st4" d="M43.1,28.9L43.1,28.9l0.1,0.9h-0.1v-0.4h-0.5v0.4h-0.1v-0.9h0.1v0.4h0.5V28.9z"/>
				<path class="st4" d="M43.4,28.9h0.5c0,0,0,0,0.1,0l0,0c0,0,0,0,0,0.1v0.3c0,0,0,0,0,0.1l0,0c0,0,0,0-0.1,0h-0.1l0.1,0.2l0,0l0,0
					l0,0l0,0l0,0l0,0l0,0l0,0l0,0l0,0l0,0l-0.2-0.3h-0.2v0.3h-0.1V28.9z M43.5,29v0.3h0.3l0,0l0,0l0,0l0,0v-0.2l0,0l0,0l0,0l0,0
					L43.5,29L43.5,29z"/>
				<path class="st4" d="M44.8,28.9L44.8,28.9l0.1,0.8c0,0,0,0,0,0.1l0,0c0,0,0,0-0.1,0h-0.4c0,0,0,0-0.1,0l0,0c0,0,0,0,0-0.1v-0.8
					h0.1v0.7l0,0l0,0l0,0l0,0h0.3l0,0l0,0l0,0l0,0v-0.7H44.8z"/>
			</g>
			<polygon class="st4" points="45.6,28 45.6,29.1 46.4,28.6 			"/>
		</g>
	</g>
</g>
</svg>
