<?xml version="1.0" encoding="utf-8"?>
<!-- Generator: Adobe Illustrator 19.2.0, SVG Export Plug-In . SVG Version: 6.00 Build 0)  -->
<svg version="1.1" id="Layer_1" xmlns="http://www.w3.org/2000/svg" xmlns:xlink="http://www.w3.org/1999/xlink" x="0px" y="0px"
	 viewBox="0 0 446.5 40.5" enable-background="new 0 0 446.5 40.5" xml:space="preserve">
<path fill="#0A589A" d="M81.7,12.7V26c0,0.9,0,2.4,1.1,3.5c0.7,0.6,1.7,1.1,2.8,1.1c1,0,2-0.4,2.7-1c1.3-1.2,1.3-2.8,1.3-4.1V12.7
	h5.8v12.9c0,2.4-0.1,4.8-2.5,7.3c-1.9,1.9-4.2,2.8-7.4,2.8c-3.5,0-6-1.2-7.4-2.7c-1.9-2.1-2.2-5-2.2-7.4V12.7H81.7z"/>
<path fill="#0A589A" d="M99.5,35.2V12.7h5.8L116,26.5V12.7h5.8v22.4H116l-10.7-13.7v13.7H99.5z"/>
<path fill="#0A589A" d="M141.9,34.6c-2.3,0.8-3.6,1.1-5,1.1c-3.9,0-6.8-1.5-8.7-3.4c-2.2-2.2-3.4-5.2-3.4-8.2c0-3.2,1.4-6.2,3.4-8.3
	c2-2,5-3.5,8.5-3.5c1.1,0,2.8,0.2,5.2,1.1v7c-1.9-2.3-4.1-2.5-5.1-2.5c-1.7,0-3,0.5-4,1.5c-1.4,1.3-2,3-2,4.6c0,1.5,0.6,3.3,1.8,4.4
	c1,0.9,2.5,1.5,4.2,1.5c0.9,0,3-0.1,5.1-2.4V34.6z"/>
<path fill="#0A589A" d="M165.2,32.3c-2.3,2.2-5.5,3.3-8.8,3.3c-3.3,0-6.6-1.1-8.8-3.3c-2.4-2.3-3.5-5.4-3.5-8.4c0-3,1.1-6.2,3.5-8.4
	c2.3-2.2,5.5-3.3,8.8-3.3c3.3,0,6.6,1.1,8.8,3.3c2.4,2.3,3.5,5.4,3.5,8.4C168.7,26.9,167.6,30.1,165.2,32.3z M151.8,19.7
	c-1.2,1.2-1.8,2.8-1.8,4.4c0,2,0.9,3.4,1.8,4.2c1.1,1,2.6,1.8,4.5,1.8c2,0,3.5-0.7,4.5-1.7s1.8-2.6,1.8-4.3c0-1.7-0.8-3.3-1.8-4.3
	c-1.2-1.2-3-1.8-4.5-1.8C154.7,17.9,153,18.5,151.8,19.7z"/>
<path fill="#0A589A" d="M170.3,35.2l3.8-22.4h5.7l4.5,12l4.8-12h5.8l3.4,22.4h-5.8l-1.6-12.9l-5.4,12.9h-2.3L178,22.3l-1.9,12.9
	H170.3z"/>
<path fill="#0A589A" d="M207.2,27.7v7.4h-5.8V12.7h9.3c1.9,0,4,0.4,5.7,2c1.7,1.7,2.1,3.6,2.1,5.4c0,1.8-0.2,3.9-2,5.6
	c-1.7,1.7-3.8,1.9-5.6,1.9H207.2z M207.2,23h2c0.6,0,1.7-0.1,2.5-0.7c0.7-0.6,0.7-1.5,0.7-2.1c0-0.6-0.1-1.4-0.7-2
	c-0.7-0.7-1.7-0.8-2.5-0.8h-2V23z"/>
<path fill="#0A589A" d="M226.6,12.7v17.5h7v4.9h-12.8V12.7H226.6z"/>
<path fill="#0A589A" d="M241.8,12.7v22.4h-5.8V12.7H241.8z"/>
<path fill="#0A589A" d="M261.9,34.6c-2.3,0.8-3.6,1.1-5,1.1c-3.9,0-6.8-1.5-8.7-3.4c-2.2-2.2-3.4-5.2-3.4-8.2c0-3.2,1.4-6.2,3.4-8.3
	c2-2,5-3.5,8.5-3.5c1.1,0,2.8,0.2,5.2,1.1v7c-1.9-2.3-4.1-2.5-5.1-2.5c-1.7,0-3,0.5-4,1.5c-1.4,1.3-2,3-2,4.6c0,1.5,0.6,3.3,1.8,4.4
	c1,0.9,2.5,1.5,4.2,1.5c0.9,0,3-0.1,5.1-2.4V34.6z"/>
<path fill="#0A589A" d="M278.6,31.4h-8.1l-1.5,3.8h-6.2l8.6-22.4h6.4l8.4,22.4H280L278.6,31.4z M277.1,27l-2.5-7.3l-2.5,7.3H277.1z"
	/>
<path fill="#0A589A" d="M295.5,17.7v17.5h-5.8V17.7H285v-4.9h15.4v4.9H295.5z"/>
<path fill="#0A589A" d="M315,17.7h-6.9v3.7h6.6v4.9h-6.6v3.9h6.9v4.9h-12.7V12.7H315V17.7z"/>
<path fill="#0A589A" d="M318,35.2V12.7h7.6c2.3,0,6,0.3,8.9,3.1c2.6,2.5,3.1,5.7,3.1,8.2c0,3-0.7,5.6-2.9,7.8
	c-1.8,1.8-4.8,3.4-8.6,3.4H318z M323.8,30.2h1.2c1.4,0,3.4-0.1,4.9-1.6c0.7-0.7,1.7-2.1,1.7-4.6c0-2.1-0.6-3.9-1.7-4.9
	c-1.4-1.3-3.2-1.4-4.6-1.4h-1.4V30.2z"/>
<path fill="#0A589A" d="M366.2,12.7v17.5h7v4.9h-12.8V12.7H366.2z"/>
<path fill="#0A589A" d="M394.4,32.3c-2.3,2.2-5.5,3.3-8.8,3.3s-6.6-1.1-8.8-3.3c-2.4-2.3-3.5-5.4-3.5-8.4c0-3,1.1-6.2,3.5-8.4
	c2.3-2.2,5.5-3.3,8.8-3.3s6.6,1.1,8.8,3.3c2.4,2.3,3.5,5.4,3.5,8.4C398,26.9,396.8,30.1,394.4,32.3z M381.1,19.7
	c-1.2,1.2-1.8,2.8-1.8,4.4c0,2,0.9,3.4,1.8,4.2c1.1,1,2.6,1.8,4.5,1.8c2,0,3.5-0.7,4.5-1.7s1.8-2.6,1.8-4.3c0-1.7-0.8-3.3-1.8-4.3
	c-1.2-1.2-3-1.8-4.5-1.8C384,17.9,382.3,18.5,381.1,19.7z"/>
<path fill="#0A589A" d="M414.7,31.4h-8.1l-1.5,3.8h-6.2l8.6-22.4h6.4l8.4,22.4h-6.2L414.7,31.4z M413.1,27l-2.5-7.3l-2.5,7.3H413.1z
	"/>
<path fill="#0A589A" d="M424.2,35.2V12.7h5.8l10.7,13.7V12.7h5.8v22.4h-5.8L430,21.4v13.7H424.2z"/>
<g>
	<g>
		<path fill="#9EC300" d="M0,21.3c15.3-9,30.6,9,46,0c0-6.2,0-12.5,0-18.7c-15.3,9-30.6-9-46,0C0,8.8,0,15.1,0,21.3z"/>
	</g>
</g>
<g>
	<g>
		<path fill="#B3DD00" d="M7.4,30.7c15.3-9,30.6,9,46,0c0-6.2,0-12.5,0-18.7c-15.3,9-30.6-9-46,0C7.4,18.2,7.4,24.5,7.4,30.7z"/>
	</g>
</g>
<g>
	<g>
		<path fill="#D8F500" d="M13.4,37.9c15.3-9,30.6,9,46,0c0-6.2,0-12.5,0-18.7c-15.3,9-30.6-9-46,0C13.4,25.4,13.4,31.6,13.4,37.9z"
			/>
	</g>
</g>
<circle fill="#D8F500" cx="349" cy="24.2" r="4.7"/>
</svg>
