<?xml version="1.0" encoding="utf-8"?>
<!-- Generator: Adobe Illustrator 19.2.0, SVG Export Plug-In . SVG Version: 6.00 Build 0)  -->
<svg version="1.1" id="Isolation_Mode" xmlns="http://www.w3.org/2000/svg" xmlns:xlink="http://www.w3.org/1999/xlink" x="0px"
	 y="0px" viewBox="0 0 64 64" enable-background="new 0 0 64 64" xml:space="preserve">
<g>
	<g>
		<path fill="#FFD800" d="M32,1.4c-0.9,0-2.6,0.4-3.9,3l-7.4,15L4.2,21.8c-2.9,0.4-3.8,1.9-4.1,2.7c-0.3,0.8-0.4,2.6,1.7,4.6
			l12,11.7L11,57.3c-0.4,2.2,0.2,3.5,0.8,4.2c0.6,0.8,1.5,1.1,2.6,1.1c0.9,0,1.8-0.3,2.9-0.8L32,54l14.8,7.8c1,0.5,2,0.8,2.9,0.8
			c1.1,0,2-0.4,2.6-1.1c0.6-0.7,1.2-2,0.8-4.2l-2.8-16.5l12-11.7c2.1-2,2-3.8,1.7-4.6c-0.3-0.8-1.2-2.3-4.1-2.7l-16.5-2.4l-7.4-15
			C34.6,1.8,32.9,1.4,32,1.4z"/>
	</g>
</g>
</svg>
